<svg xmlns="http://www.w3.org/2000/svg" width="18" height="18" viewBox="0 0 18 18" fill="none">
  <path d="M12.3613 5.63989H9.67325V6.98389H12.3613C13.4701 6.98389 14.3773 7.89109 14.3773 8.99989C14.3773 10.1087 13.4701 11.0159 12.3613 11.0159H9.67325V12.3599H12.3613C14.216 12.3599 15.7213 10.8546 15.7213 8.99989C15.7213 7.14517 14.216 5.63989 12.3613 5.63989ZM8.32925 11.0159H5.64125C4.53245 11.0159 3.62525 10.1087 3.62525 8.99989C3.62525 7.89109 4.53245 6.98389 5.64125 6.98389H8.32925V5.63989H5.64125C3.78653 5.63989 2.28125 7.14517 2.28125 8.99989C2.28125 10.8546 3.78653 12.3599 5.64125 12.3599H8.32925V11.0159ZM6.31325 8.32789H11.6893V9.67189H6.31325V8.32789Z" fill="#261A1A"/>
</svg>