<svg width="216" height="329" viewBox="0 0 216 329" fill="none" xmlns="http://www.w3.org/2000/svg">
    <path opacity="0.4"
        d="M3.50254 324.94C1.86479 323.272 0.621315 319.541 0.5 317.206V11.9781C1.04592 3.48609 4.47306 0.665518 12.8134 0.0589441C74.3807 -0.244343 135.645 0.756504 197.091 0.0589441C205.401 -0.0320419 214.59 -0.123027 215.5 10.3707V315.993C214.863 325.819 209.525 327.548 200.76 327.912C170.31 329.186 138.344 327.548 107.803 327.487C78.0201 327.427 47.9341 327.548 18.0906 327.912C13.784 327.973 6.68705 328.155 3.47221 324.909M106.711 4.63857C100.888 5.18449 100.039 9.40018 99.4928 14.4044V313.961C99.8568 319.208 102.071 323.302 107.803 323.454C114.445 323.636 116.416 317.934 116.477 312.353V13.9798C116.234 7.85341 113.171 4.00167 106.681 4.60825M187.476 23.3514C192.086 19.0447 209.343 5.63942 192.693 4.48693C171.796 3.06148 149.202 5.51811 128.123 4.60825C126.121 4.97219 124.453 5.73041 123.149 7.33783C122.452 8.21736 121.117 11.0076 120.966 12.0084C120.42 15.1626 120.45 32.2377 120.966 35.4222C123.301 49.4644 137.434 60.4737 151.385 54.1653C160.211 50.1923 179.348 30.9032 187.446 23.3514M84.8137 63.3549C104.952 40.0928 88.7565 6.97388 58.9434 5.30581C43.9913 4.4566 28.2811 5.97304 13.2684 5.30581C10.4781 5.66975 8.05184 6.57961 6.41409 8.97558C4.80667 11.3109 4.68536 15.5569 4.56404 18.4381C3.89681 31.995 3.86648 49.4037 4.56404 62.9303C4.68536 64.9926 4.92799 68.996 5.59522 70.7854C6.26245 72.5748 7.86987 73.8486 9.71992 74.5462C11.1454 75.1224 12.7225 75.2437 14.2389 75.1224C36.5001 73.3027 68.6182 82.0374 84.8137 63.3549ZM194.331 131.2C197.03 134.142 200.821 139.419 204.612 140.541C207.402 141.36 208.888 140.42 209.92 138.6C210.769 137.145 211.102 135.446 211.072 133.748C210.617 98.7788 213.134 62.5057 211.497 27.7187C211.406 26.081 211.254 22.2899 210.981 20.9554C210.89 20.6218 209.465 17.2856 209.252 17.0127C205.795 12.3724 198.91 20.7734 196.514 23.2604C183.958 36.2714 172.16 50.2226 160.211 63.7492C151.264 78.1856 156.238 89.1039 166.428 100.689C175.496 111.001 185.111 121.07 194.361 131.17M89.3024 134.142C103.041 110.213 84.5104 83.4628 58.5188 81.7341C44.2036 80.7636 28.918 82.371 14.4512 81.7644C13.3594 81.7038 12.2372 81.7644 11.1454 82.0677C7.83954 82.8866 5.53456 85.0702 5.01897 88.8613C4.80667 90.3778 4.6247 92.8647 4.56404 94.4721C3.86648 108.09 3.86648 125.771 4.56404 139.359C4.68536 141.451 4.92799 145.394 5.59522 147.214C6.17146 148.76 7.53625 149.943 9.14367 150.701C10.7511 151.46 12.5405 151.672 14.2995 151.551C39.442 149.488 74.2897 160.346 89.3327 134.172M162.789 111.396C154.236 103.904 147.048 98.0509 134.795 103.085C114.718 111.305 122.057 140.845 121.208 159.285C121.117 161.438 121.269 163.591 121.815 165.654C122.057 166.624 122.361 167.595 122.967 168.322C124.241 169.9 127.213 170.991 129.215 171.082H203.187C206.401 170.809 208.706 169.687 210.041 166.624C211.8 162.59 211.102 158.739 209.222 154.887C206.432 149.124 191.358 137.781 185.99 132.868C178.256 125.832 170.705 118.31 162.789 111.396ZM86.3302 221.307C91.1524 217.455 94.0943 212.481 94.6705 206.021C95.7927 193.283 93.9427 178.998 94.6099 165.987C94.6705 164.926 94.6099 163.864 94.3673 162.833C93.1541 157.92 89.2417 157.192 84.0252 156.889C61.4303 155.615 37.7133 157.798 14.9668 156.919C13.784 156.858 12.5708 156.949 11.4183 157.252C2.92629 159.527 3.3509 169.445 8.84039 175.874C16.3316 184.67 29.2213 194.405 37.9862 202.291C51.4522 214.392 67.1018 236.623 86.3605 221.276M155.085 176.147C114.718 179.938 110.745 234.803 149.323 245.024C151.173 245.509 153.114 245.721 155.055 245.721C170.492 245.903 187.658 247.45 202.792 246.237C206.037 245.964 207.675 245.418 209.374 242.749C210.556 240.869 211.193 238.715 211.315 236.532C212.194 222.823 212.285 203.109 211.497 188.612C211.254 184.336 210.617 179.028 206.25 176.875C205.734 176.602 205.188 176.451 204.612 176.299C203.308 175.996 201.943 175.905 200.578 175.965C185.687 176.542 169.734 174.752 155.085 176.117M22.094 197.165C20.244 195.163 16.8472 190.917 15.0578 189.462C11.7216 186.732 7.74855 185.974 5.77719 189.431C5.20095 190.432 4.98864 191.585 4.98864 192.737C5.35259 228.191 2.98695 264.919 4.53371 300.252C4.6247 302.497 4.80667 306.712 5.44357 308.623C6.35344 311.413 8.23381 312.202 11.115 311.656C13.6323 311.171 17.4234 306.864 19.3341 304.893C25.7031 298.251 31.6779 290.729 37.8649 283.844C45.8414 274.958 59.459 263.827 60.3082 251.302C61.1574 238.412 52.9989 231.103 45.1741 222.398C37.5313 213.906 29.7975 205.536 22.094 197.165ZM206.917 321.725C207.129 321.604 209.616 318.449 209.859 318.025C211.102 315.841 211.345 312.111 211.466 309.533C212.164 296.188 212.164 278.779 211.466 265.435C211.254 261.159 210.92 255.912 206.735 253.607C205.006 252.667 203.126 252.424 201.185 252.303C188.72 251.453 171.311 251.696 158.725 252.303C137.161 253.364 119.146 270.773 122.694 293.246C125.151 308.805 139.466 321.543 155.116 322.665C169.855 323.696 185.687 322.028 200.639 322.574C202.519 322.635 204.4 322.483 206.219 321.998C206.583 321.907 206.826 321.816 206.947 321.755M86.3302 277.233C68.5879 261.765 52.5743 283.086 40.1396 294.156C36.5608 297.341 32.6787 300.283 29.2213 303.437C26.1277 306.227 17.0898 313.688 16.3922 317.297C15.543 321.786 18.1816 322.999 22.1547 323.484C42.9298 322.119 65.919 325.243 86.4212 323.484C90.7885 323.12 94.0943 320.39 94.6402 315.932C95.5501 308.502 95.3378 290.001 92.032 283.48C90.6672 280.781 88.3925 279.052 86.3302 277.233Z"
        fill="#CCCCCC" />
</svg>