<svg width="147" height="224" viewBox="0 0 147 224" fill="none" xmlns="http://www.w3.org/2000/svg">
    <path opacity="0.4"
        d="M2.21992 221.643C1.1028 220.505 0.254624 217.96 0.171875 216.367V8.17032C0.544247 2.37787 2.88191 0.453952 8.57092 0.040206C50.5662 -0.166667 92.3545 0.516014 134.267 0.040206C139.935 -0.0218559 146.204 -0.0839176 146.824 7.07389V215.54C146.39 222.243 142.749 223.422 136.77 223.67C116 224.539 94.1957 223.422 73.3636 223.38C53.0486 223.339 32.5268 223.422 12.1705 223.67C9.23292 223.711 4.39209 223.836 2.19923 221.622M72.6188 3.16399C68.6469 3.53636 68.0676 6.4119 67.6953 9.8253V214.154C67.9435 217.733 69.4537 220.526 73.3636 220.629C77.8941 220.753 79.2388 216.864 79.2802 213.057V9.53568C79.1147 5.35684 77.0252 2.72956 72.5981 3.1433M127.709 15.9281C130.854 12.9905 142.625 3.84667 131.267 3.06055C117.014 2.08825 101.602 3.76392 87.2241 3.1433C85.8587 3.39155 84.7209 3.90873 83.8314 5.00516C83.3556 5.60509 82.4453 7.50833 82.3419 8.19101C81.9695 10.3425 81.9902 21.9894 82.3419 24.1616C83.9348 33.7398 93.5751 41.2493 103.091 36.9464C109.111 34.2363 122.165 21.0792 127.688 15.9281M57.6826 43.2146C71.419 27.3475 60.3719 4.75691 40.0363 3.61911C29.8375 3.03987 19.1215 4.07423 8.88123 3.61911C6.978 3.86736 5.32302 4.48798 4.2059 6.12228C3.10947 7.7152 3.02672 10.6114 2.94397 12.5767C2.48885 21.8239 2.46817 33.6985 2.94397 42.925C3.02672 44.3317 3.19222 47.0625 3.64734 48.283C4.10246 49.5036 5.19889 50.3724 6.46082 50.8482C7.43312 51.2413 8.50886 51.3241 9.54323 51.2413C24.7277 50.0001 46.6356 55.958 57.6826 43.2146ZM132.384 89.4921C134.226 91.4988 136.812 95.0984 139.397 95.8638C141.301 96.4224 142.314 95.7811 143.018 94.5398C143.597 93.5469 143.825 92.3884 143.804 91.2299C143.494 67.3774 145.211 42.6354 144.093 18.907C144.031 17.7899 143.928 15.204 143.742 14.2938C143.68 14.0662 142.707 11.7906 142.563 11.6044C140.204 8.43925 135.508 14.1696 133.874 15.866C125.309 24.7409 117.262 34.257 109.111 43.4836C103.008 53.3307 106.401 60.7781 113.352 68.6807C119.538 75.7144 126.096 82.5826 132.405 89.4715M60.7443 91.4988C70.1157 75.1765 57.4757 56.9303 39.7467 55.7511C29.9823 55.0891 19.5559 56.1856 9.68804 55.7718C8.94329 55.7304 8.17786 55.7718 7.43312 55.9787C5.1782 56.5373 3.60597 58.0267 3.25428 60.6127C3.10947 61.647 2.98535 63.3434 2.94397 64.4398C2.46817 73.7284 2.46817 85.7891 2.94397 95.057C3.02672 96.4845 3.19222 99.1738 3.64734 100.415C4.0404 101.47 4.97133 102.277 6.06776 102.794C7.16419 103.311 8.38474 103.456 9.5846 103.373C26.7344 101.967 50.5041 109.373 60.765 91.5195M110.87 75.9833C105.036 70.8736 100.133 66.8809 91.7753 70.315C78.0803 75.9213 83.0866 96.0707 82.5074 108.649C82.4453 110.117 82.5488 111.586 82.9211 112.993C83.0866 113.655 83.2935 114.317 83.7072 114.813C84.5761 115.889 86.6035 116.634 87.9688 116.696H138.425C140.618 116.51 142.19 115.744 143.1 113.655C144.3 110.904 143.825 108.276 142.542 105.649C140.639 101.718 130.357 93.9813 126.695 90.6299C121.42 85.8305 116.269 80.7 110.87 75.9833ZM58.717 150.954C62.0062 148.327 64.0129 144.934 64.406 140.528C65.1714 131.839 63.9095 122.095 64.3646 113.22C64.406 112.496 64.3646 111.772 64.1991 111.069C63.3716 107.718 60.7029 107.221 57.1447 107.014C41.7327 106.145 25.5552 107.635 10.0397 107.035C9.23292 106.994 8.40542 107.056 7.61931 107.263C1.82686 108.814 2.11648 115.579 5.86089 119.965C10.9707 125.964 19.7628 132.604 25.7414 137.983C34.9266 146.237 45.6012 161.401 58.7377 150.933M105.615 120.151C78.0803 122.737 75.3702 160.16 101.685 167.132C102.946 167.463 104.27 167.607 105.594 167.607C116.124 167.732 127.833 168.787 138.156 167.959C140.37 167.773 141.487 167.401 142.645 165.58C143.452 164.297 143.887 162.829 143.969 161.339C144.569 151.988 144.631 138.542 144.093 128.653C143.928 125.736 143.494 122.116 140.515 120.647C140.163 120.461 139.791 120.358 139.397 120.254C138.508 120.047 137.577 119.985 136.646 120.027C126.489 120.42 115.607 119.199 105.615 120.13M14.9012 134.487C13.6393 133.122 11.3223 130.225 10.1018 129.232C7.82618 127.371 5.11614 126.853 3.77147 129.212C3.37841 129.894 3.2336 130.681 3.2336 131.467C3.48184 155.65 1.86823 180.702 2.92329 204.803C2.98535 206.334 3.10947 209.21 3.54391 210.513C4.16453 212.416 5.44714 212.954 7.41243 212.582C9.12948 212.251 11.7154 209.313 13.0187 207.968C17.363 203.438 21.4384 198.307 25.6586 193.611C31.0994 187.55 40.388 179.958 40.9673 171.414C41.5465 162.622 35.9816 157.636 30.6443 151.699C25.4311 145.906 20.1558 140.197 14.9012 134.487ZM140.97 219.45C141.115 219.367 142.811 217.216 142.976 216.926C143.825 215.436 143.99 212.892 144.073 211.134C144.549 202.031 144.549 190.157 144.073 181.054C143.928 178.137 143.7 174.558 140.846 172.986C139.666 172.345 138.384 172.179 137.06 172.097C128.557 171.517 116.683 171.683 108.098 172.097C93.3889 172.821 81.1006 184.695 83.521 200.024C85.1967 210.637 94.9611 219.326 105.636 220.091C115.69 220.794 126.489 219.657 136.687 220.029C137.97 220.07 139.253 219.967 140.494 219.636C140.742 219.574 140.908 219.512 140.99 219.471M58.717 189.102C46.6149 178.551 35.692 193.094 27.2102 200.645C24.7691 202.817 22.1211 204.824 19.7628 206.975C17.6527 208.879 11.4878 213.968 11.012 216.429C10.4328 219.491 12.2326 220.319 14.9426 220.65C29.1134 219.719 44.7944 221.85 58.779 220.65C61.758 220.401 64.0129 218.54 64.3853 215.499C65.0059 210.43 64.8611 197.811 62.6062 193.363C61.6753 191.522 60.1237 190.343 58.717 189.102Z"
        fill="#CCCCCC" />
</svg>