<svg width="64" height="16" viewBox="0 0 64 16" fill="none" xmlns="http://www.w3.org/2000/svg">
<path d="M4.33962 15.0102C2.53108 15.0102 1.06989 13.5203 1.1169 11.7013C1.1626 9.92802 2.7165 8.56215 4.48978 8.56215H9.22854C9.50145 8.56215 9.72344 8.34016 9.72344 8.06725V7.95887C9.72344 7.68595 9.50145 7.46397 9.22854 7.46397H4.48978C2.7165 7.46397 1.1626 6.0981 1.1169 4.32482C1.06989 2.50584 2.53108 1.01591 4.33962 1.01591H9.22724C9.50015 1.01591 9.72214 0.793928 9.72214 0.521015C9.72214 0.248103 9.50015 0.0261161 9.22724 0.0261161H0.55279C0.290324 0.0274219 0.0761719 0.240268 0.0761719 0.50404V15.5234C0.0761719 15.7872 0.290324 16 0.55279 16H9.22724C9.50015 16 9.72214 15.778 9.72214 15.5051C9.72214 15.2322 9.50015 15.0102 9.22724 15.0102H4.33962Z" fill="#171717"/>
<path d="M58.5409 15.0102C56.7323 15.0102 55.2711 13.5203 55.3182 11.7013C55.3639 9.92802 56.9165 8.56215 58.691 8.56215H63.4298C63.7027 8.56215 63.9247 8.34016 63.9247 8.06725V7.95887C63.9247 7.68595 63.704 7.46397 63.4298 7.46397H58.691C56.9178 7.46397 55.3639 6.0981 55.3182 4.32482C55.2711 2.50584 56.7323 1.01591 58.5409 1.01591H63.4285C63.7014 1.01591 63.9234 0.793928 63.9234 0.521015C63.9234 0.248103 63.7027 0.0261161 63.4285 0.0261161H54.754C54.4903 0.0261161 54.2774 0.240268 54.2774 0.502734V15.5221C54.2774 15.7858 54.4903 15.9987 54.754 15.9987H63.4285C63.7014 15.9987 63.9234 15.7767 63.9234 15.5038C63.9234 15.2309 63.7027 15.0089 63.4285 15.0089H58.5409V15.0102Z" fill="#171717"/>
<path d="M46.1527 15.2583V15.2557L46.124 15.2244C46.124 15.2244 46.1136 15.2113 46.107 15.2061L40.9595 9.57806C40.1369 8.67836 40.1369 7.30074 40.9595 6.40104L46.1527 0.723415C46.2219 0.646372 46.2663 0.547131 46.2663 0.436138C46.2663 0.19587 46.0705 0 45.8302 0C45.7088 0 45.5899 0.0600669 45.5011 0.148862L40.1369 5.04823C40.1278 5.05607 40.1186 5.0639 40.1095 5.07304C38.8925 6.15294 36.9599 5.20624 36.9612 3.57921L36.9638 0.47923C36.9638 0.214152 36.7496 0 36.4846 0C36.2195 0 36.0053 0.214152 36.0053 0.47923V15.4868C36.0053 15.7519 36.2195 15.966 36.4846 15.966C36.7496 15.966 36.9638 15.7506 36.9638 15.4868L36.9612 12.3986C36.9599 10.7716 38.8925 9.82617 40.1095 10.9061C40.1186 10.9139 40.1278 10.9217 40.1369 10.9309L45.5011 15.8381H45.505C45.5925 15.9177 45.7127 15.9674 45.8393 15.9674C45.966 15.9674 46.0665 15.9177 46.1449 15.8381H46.154V15.825C46.2232 15.7493 46.2676 15.65 46.2676 15.5391C46.2676 15.4398 46.2219 15.3406 46.154 15.257" fill="#171717"/>
<path d="M27.8806 15.2583V15.2557L27.8519 15.2244C27.8519 15.2244 27.8415 15.2113 27.8349 15.2061L22.6875 9.57806C21.8648 8.67836 21.8648 7.30074 22.6875 6.40104L27.8806 0.72472C27.9498 0.647678 27.9942 0.548437 27.9942 0.437444C27.9942 0.197176 27.7984 0.0013058 27.5581 0.0013058C27.4367 0.0013058 27.3178 0.0613727 27.229 0.150167L21.8648 5.04954C21.8557 5.05737 21.8465 5.06521 21.8374 5.07435C20.6204 6.15425 18.6878 5.20754 18.6891 3.58051L18.6917 0.480535C18.6917 0.215457 18.4775 0.0013058 18.2125 0.0013058C17.9474 0.0013058 17.7332 0.215457 17.7332 0.480535V15.4881C17.7332 15.7532 17.9474 15.9674 18.2125 15.9674C18.4775 15.9674 18.6917 15.7519 18.6917 15.4881L18.6891 12.3999C18.6878 10.7729 20.6204 9.82747 21.8374 10.9074C21.8465 10.9152 21.8557 10.923 21.8648 10.9322L27.229 15.8394H27.2343C27.3217 15.919 27.4419 15.9687 27.5685 15.9687C27.6952 15.9687 27.7958 15.919 27.8728 15.8394H27.8819V15.8263C27.9511 15.7506 27.9955 15.6514 27.9955 15.5404C27.9955 15.4411 27.9498 15.3419 27.8819 15.2583" fill="#171717"/>
</svg>
