<svg width="10" height="8" viewBox="0 0 10 8" fill="none" xmlns="http://www.w3.org/2000/svg">
<path d="M0.949641 4.88943C1.80631 5.77395 3.30034 7 5.0001 7C6.69987 7 8.1936 5.77395 9.05028 4.88943C9.27621 4.65616 9.38956 4.53912 9.4615 4.31008C9.51283 4.14666 9.51283 3.85339 9.4615 3.68997C9.38956 3.46092 9.27623 3.34387 9.05028 3.11057C8.1936 2.22605 6.69987 1 5.0001 1C3.30034 1 1.80631 2.22605 0.949641 3.11057C0.723531 3.34403 0.610466 3.46084 0.538497 3.68997C0.487168 3.85339 0.487168 4.14666 0.538497 4.31008C0.610466 4.53921 0.72353 4.65597 0.949641 4.88943Z" stroke="#171717" stroke-linecap="round" stroke-linejoin="round"/>
<path d="M4.03715 4.00002C4.03715 4.55231 4.46824 5.00003 5.00001 5.00003C5.53179 5.00003 5.96288 4.55231 5.96288 4.00002C5.96288 3.44773 5.53179 3.00001 5.00001 3.00001C4.46824 3.00001 4.03715 3.44773 4.03715 4.00002Z" stroke="#171717" stroke-linecap="round" stroke-linejoin="round"/>
</svg>
