<svg xmlns="http://www.w3.org/2000/svg" width="201" height="200" viewBox="0 0 201 200" fill="none">
  <g clip-path="url(#clip0_34054_133562)">
    <path d="M0.5 0V200H200.5V0H0.5Z" fill="var(--pageBackground)"/>
    <path d="M167.1 157.2H157.22C156.66 157.2 156.22 156.76 156.22 156.2C156.22 155.64 156.66 155.2 157.22 155.2H167.1C167.66 155.2 168.1 155.64 168.1 156.2C168.1 156.76 167.66 157.2 167.1 157.2Z" fill="var(--errorText, #b24141)"/>
    <path d="M150.06 157.2H33.8799C33.3199 157.2 32.8799 156.76 32.8799 156.2C32.8799 155.64 33.3199 155.2 33.8799 155.2H150.06C150.62 155.2 151.06 155.64 151.06 156.2C151.06 156.76 150.62 157.2 150.06 157.2Z" fill="var(--errorText, #b24141)"/>
    <path d="M159.88 87.24C161.835 87.24 163.42 85.6551 163.42 83.7C163.42 81.7449 161.835 80.16 159.88 80.16C157.925 80.16 156.34 81.7449 156.34 83.7C156.34 85.6551 157.925 87.24 159.88 87.24Z" stroke="var(--errorText, #b24141)" stroke-miterlimit="10"/>
    <path d="M155.18 114.02C154.58 107.88 152.24 102.1 148.76 97.04C145.64 101.34 140.68 104.22 135.06 104.5C139.38 109.92 140.82 116.5 139.42 124.24C138.98 126.64 137.98 128.96 136.58 130.96C130.68 139.38 122.84 142.98 113.1 141.8C108.08 141.18 103.54 138.5 99.9599 134.94L89.2399 124.2C86.1999 121.18 81.2999 121.18 78.2799 124.2C75.2399 127.22 75.2399 132.14 78.2799 135.16L89.2399 146.12C96.8999 153.8 106.14 157.58 116.98 157.5C126.92 157.42 136.68 153.36 143.78 146.4C152.64 137.68 156.44 126.88 155.18 114.02ZM116.64 107.76L83.7599 74.88C80.7199 71.84 75.8199 71.84 72.7799 74.88C69.7599 77.9 69.7599 82.8 72.7799 85.84L105.68 118.72C107.18 120.24 109.18 120.98 111.16 120.98C113.14 120.98 115.14 120.24 116.64 118.72C119.66 115.7 119.66 110.78 116.64 107.76ZM111.16 58.42L100.2 47.46C92.5399 39.8 83.2799 36.02 72.4399 36.1C62.4999 36.16 52.7399 40.22 45.6599 47.2C36.7799 55.92 32.9799 66.7 34.2399 79.58C35.0999 88.34 39.4999 96.4 45.7399 102.62L56.3399 113.24C57.8599 114.76 59.8399 115.5 61.8199 115.5C63.7999 115.5 65.7799 114.76 67.2999 113.24C70.3399 110.22 70.3399 105.3 67.2999 102.28L56.3399 91.32C50.5199 85.48 48.3999 78.16 50.0199 69.36C50.4599 66.96 51.4399 64.62 52.8399 62.64C58.7599 54.22 66.5799 50.6 76.3399 51.8C81.3399 52.42 85.8999 55.08 89.4599 58.66L100.2 69.38C101.7 70.9 103.7 71.66 105.68 71.66C107.66 71.66 109.66 70.9 111.16 69.38C114.18 66.36 114.18 61.46 111.16 58.42Z" fill="var(--errorText, #b24141)"/>
    <path d="M150.16 86.5201C150.16 89.7601 149.18 92.8001 147.5 95.3201C144.64 99.6601 139.74 102.52 134.18 102.52C133.88 102.52 133.58 102.52 133.28 102.52C124.88 102.04 118.18 95.0601 118.18 86.5401C118.18 78.0201 125.36 70.5601 134.18 70.5601C143 70.5601 150.16 77.7201 150.16 86.5401V86.5201Z" fill="var(--pageBackground)"/>
    <path d="M150.16 86.5201C150.16 89.7601 149.18 92.8001 147.5 95.3201C144.64 99.6601 139.74 102.52 134.18 102.52C133.88 102.52 133.58 102.52 133.28 102.52C124.88 102.04 118.18 95.0601 118.18 86.5401C118.18 78.0201 125.36 70.5601 134.18 70.5601C143 70.5601 150.16 77.7201 150.16 86.5401V86.5201Z" fill="var(--errorText, #b24141)"/>
    <path d="M136.08 76.0801H132.28C131.84 76.0801 131.48 76.4401 131.5 76.8801L131.58 79.2001L131.94 90.5801C131.96 91.0001 132.3 91.3201 132.72 91.3201H135.62C136.04 91.3201 136.38 91.0001 136.4 90.5801L136.62 83.8801L136.84 76.8801C136.86 76.4401 136.5 76.0801 136.08 76.0801ZM136.12 93.6201C135.56 93.0801 134.9 92.8201 134.16 92.8201C133.42 92.8201 132.74 93.0801 132.2 93.6201C131.66 94.1601 131.38 94.8201 131.38 95.5801C131.38 96.3401 131.66 97.0001 132.2 97.5401C132.74 98.0801 133.4 98.3601 134.16 98.3601C134.66 98.3601 135.12 98.2401 135.54 97.9801C135.96 97.7401 136.3 97.4001 136.56 96.9801C136.82 96.5601 136.96 96.0801 136.96 95.5801C136.96 94.8201 136.68 94.1601 136.12 93.6201Z" fill="var(--pageBackground)"/>
    <path d="M140.78 58.84C138.68 56.74 138.68 53.32 140.78 51.22C141.32 50.68 141.32 49.82 140.78 49.28C140.24 48.74 139.38 48.74 138.84 49.28C136.74 51.38 133.32 51.38 131.22 49.28C130.68 48.74 129.82 48.74 129.28 49.28C128.74 49.82 128.74 50.68 129.28 51.22C131.38 53.32 131.38 56.74 129.28 58.84C128.74 59.38 128.74 60.24 129.28 60.78C129.82 61.32 130.68 61.32 131.22 60.78C133.32 58.68 136.74 58.68 138.84 60.78C139.38 61.32 140.24 61.32 140.78 60.78C141.32 60.24 141.32 59.38 140.78 58.84Z" fill="var(--errorText, #b24141)"/>
  </g>
  <defs>
    <clipPath id="clip0_34054_133562">
      <rect width="200" height="200" fill="var(--pageBackground)" transform="translate(0.5)"/>
    </clipPath>
  </defs>
</svg>