<svg xmlns="http://www.w3.org/2000/svg" width="20" height="20" fill="none"><path fill="#666666" stroke="#666666" stroke-width="0.3" d="M0 10.567h1.536a8.495 8.495 0 0 0 7.897 7.897v1.686h1.134v-1.686c4.227-.28 7.617-3.67 7.897-7.897h1.686V9.433h-1.686a8.495 8.495 0 0 0-7.897-7.897V-.15H9.433v1.686a8.495 8.495 0 0 0-7.897 7.897H-.15v1.134zm10-4.884A4.32 4.32 0 0 0 5.683 10 4.32 4.32 0 0 0 10 14.317 4.32 4.32 0 0 0 14.317 10 4.32 4.32 0 0 0 10 5.683Zm0 7.5A3.187 3.187 0 0 1 6.817 10 3.187 3.187 0 0 1 10 6.817 3.187 3.187 0 0 1 13.183 10 3.187 3.187 0 0 1 10 13.183Zm0 4.167c-4.052 0-7.35-3.297-7.35-7.35S5.948 2.65 10 2.65s7.35 3.297 7.35 7.35-3.298 7.35-7.35 7.35Z"></path></svg><svg xmlns="http://www.w3.org/2000/svg" width="24" height="24" viewBox="0 0 24 24" fill="none">
  <path d="M11.0008 22.9498V20.9498C8.91745 20.7165 7.13012 19.8541 5.63878 18.3628C4.14678 16.8708 3.28411 15.0831 3.05078 12.9998H1.05078V10.9998H3.05078C3.28411 8.91647 4.14678 7.1288 5.63878 5.6368C7.13012 4.14547 8.91745 3.28314 11.0008 3.0498V1.0498H13.0008V3.0498C15.0841 3.28314 16.8718 4.14547 18.3638 5.6368C19.8551 7.1288 20.7174 8.91647 20.9508 10.9998H22.9508V12.9998H20.9508C20.7174 15.0831 19.8551 16.8708 18.3638 18.3628C16.8718 19.8541 15.0841 20.7165 13.0008 20.9498V22.9498H11.0008ZM12.0008 18.9998C13.9341 18.9998 15.5841 18.3165 16.9508 16.9498C18.3174 15.5831 19.0008 13.9331 19.0008 11.9998C19.0008 10.0665 18.3174 8.41647 16.9508 7.0498C15.5841 5.68314 13.9341 4.9998 12.0008 4.9998C10.0674 4.9998 8.41745 5.68314 7.05078 7.0498C5.68411 8.41647 5.00078 10.0665 5.00078 11.9998C5.00078 13.9331 5.68411 15.5831 7.05078 16.9498C8.41745 18.3165 10.0674 18.9998 12.0008 18.9998ZM12.0008 15.9998C10.9008 15.9998 9.95912 15.6081 9.17578 14.8248C8.39245 14.0415 8.00078 13.0998 8.00078 11.9998C8.00078 10.8998 8.39245 9.95814 9.17578 9.1748C9.95912 8.39147 10.9008 7.9998 12.0008 7.9998C13.1008 7.9998 14.0424 8.39147 14.8258 9.1748C15.6091 9.95814 16.0008 10.8998 16.0008 11.9998C16.0008 13.0998 15.6091 14.0415 14.8258 14.8248C14.0424 15.6081 13.1008 15.9998 12.0008 15.9998ZM12.0008 13.9998C12.5508 13.9998 13.0218 13.8038 13.4138 13.4118C13.8051 13.0205 14.0008 12.5498 14.0008 11.9998C14.0008 11.4498 13.8051 10.9788 13.4138 10.5868C13.0218 10.1955 12.5508 9.9998 12.0008 9.9998C11.4508 9.9998 10.9801 10.1955 10.5888 10.5868C10.1968 10.9788 10.0008 11.4498 10.0008 11.9998C10.0008 12.5498 10.1968 13.0205 10.5888 13.4118C10.9801 13.8038 11.4508 13.9998 12.0008 13.9998Z" fill="currentColor"/>
</svg>