<svg width="82" height="42" viewBox="0 0 82 42" fill="none" xmlns="http://www.w3.org/2000/svg">
<ellipse opacity="0.08" cx="41" cy="32.5" rx="41" ry="9.5" fill="var(--successText, #0D5E25)"/>
<ellipse opacity="0.16" cx="41" cy="32.5" rx="24" ry="5.5" fill="var(--successText, #0D5E25)"/>
<path d="M53 13.3335C53 22.6668 41 30.6668 41 30.6668C41 30.6668 29 22.6668 29 13.3335C29 10.1509 30.2643 7.09865 32.5147 4.84821C34.7652 2.59778 37.8174 1.3335 41 1.3335C44.1826 1.3335 47.2348 2.59778 49.4853 4.84821C51.7357 7.09865 53 10.1509 53 13.3335Z" fill="var(--successText, #0D5E25)"/>
<path d="M41 17.3335C43.2091 17.3335 45 15.5426 45 13.3335C45 11.1244 43.2091 9.3335 41 9.3335C38.7909 9.3335 37 11.1244 37 13.3335C37 15.5426 38.7909 17.3335 41 17.3335Z" fill="var(--buttonSecondary, #FEFEFE)"/>
</svg>
