<svg width="25" height="25" viewBox="0 0 25 25" fill="none" xmlns="http://www.w3.org/2000/svg">
<path d="M16.8828 5.05566C18.1095 5.05572 19.1305 5.48264 19.9766 6.34473C20.8219 7.20624 21.2461 8.25977 21.2461 9.53711C21.2461 10.1295 21.1626 10.692 20.998 11.2266C20.8398 11.7404 20.5248 12.3338 20.0303 13.0098C19.5352 13.6868 18.8347 14.4898 17.9219 15.4209C17.0088 16.3524 15.8074 17.4988 14.3154 18.8604L14.3105 18.8652L13.3369 19.7812C13.228 19.8794 13.1172 19.9466 13.0029 19.9883C12.8762 20.0345 12.7525 20.0557 12.6309 20.0557C12.5091 20.0556 12.383 20.0335 12.251 19.9863C12.1351 19.9449 12.036 19.8834 11.9502 19.7998H11.9512L11.9404 19.79L10.9316 18.8613L10.9297 18.8604L9.86523 17.8799C8.85462 16.9394 8.00664 16.1197 7.32031 15.4209C6.40595 14.4901 5.70579 13.6868 5.21289 13.0098C4.72026 12.3331 4.40642 11.7394 4.24805 11.2266V11.2256C4.08356 10.693 4.00003 10.1309 4 9.53711C4 8.25983 4.42327 7.20622 5.26855 6.34473C6.1147 5.48241 7.13638 5.05567 8.36328 5.05566C9.14009 5.05566 9.85207 5.23149 10.5078 5.58008C11.1624 5.9281 11.7374 6.44177 12.2295 7.13574L12.6309 7.70312L13.041 7.14062C13.5504 6.44192 14.1273 5.92553 14.7686 5.57715C15.4068 5.23054 16.1088 5.05566 16.8828 5.05566Z" stroke="#171717"/>
</svg>
