<svg xmlns="http://www.w3.org/2000/svg" width="18" height="18" viewBox="0 0 18 18" fill="none">
  <path d="M9.00025 6.31105C9.73945 6.31105 10.3443 5.70625 10.3443 4.96705C10.3443 4.22785 9.73945 3.62305 9.00025 3.62305C8.26105 3.62305 7.65625 4.22785 7.65625 4.96705C7.65625 5.70625 8.26105 6.31105 9.00025 6.31105ZM9.00025 7.65505C8.26105 7.65505 7.65625 8.25985 7.65625 8.99905C7.65625 9.73825 8.26105 10.343 9.00025 10.343C9.73945 10.343 10.3443 9.73825 10.3443 8.99905C10.3443 8.25985 9.73945 7.65505 9.00025 7.65505ZM9.00025 11.687C8.26105 11.687 7.65625 12.2918 7.65625 13.031C7.65625 13.7702 8.26105 14.375 9.00025 14.375C9.73945 14.375 10.3443 13.7702 10.3443 13.031C10.3443 12.2918 9.73945 11.687 9.00025 11.687Z" fill="#261A1A"/>
</svg>