<svg xmlns="http://www.w3.org/2000/svg" width="138" height="108" viewBox="0 0 134 108" fill="none">
  <path d="M108.897 9.66679C107.025 7.79479 107.025 4.7461 108.897 2.8741C109.379 2.39272 109.379 1.62609 108.897 1.14472C108.416 0.663348 107.649 0.663348 107.168 1.14472C105.296 3.01672 102.247 3.01672 100.375 1.14472C99.8937 0.663348 99.1271 0.663348 98.6457 1.14472C98.1643 1.62609 98.1643 2.39272 98.6457 2.8741C100.518 4.7461 100.518 7.79479 98.6457 9.66679C98.1643 10.1482 98.1643 10.9148 98.6457 11.3962C99.1271 11.8775 99.8937 11.8775 100.375 11.3962C102.247 9.52416 105.296 9.52416 107.168 11.3962C107.649 11.8775 108.416 11.8775 108.897 11.3962C109.379 10.9148 109.379 10.1482 108.897 9.66679Z" fill="var(--buttonPrimary)"/>
  <path d="M85.2921 51.1533C102.639 51.1533 116.688 62.9737 116.688 77.5396C116.688 85.0455 112.944 91.8203 106.954 96.6162L109.022 104.782C109.396 106.279 107.988 107.599 106.526 107.135L93.5646 102.981C90.926 103.587 88.1625 103.926 85.2921 103.926C67.9449 103.926 53.896 92.1056 53.896 77.5396C53.896 62.9737 67.9627 51.1533 85.2921 51.1533Z" fill="var(--buttonPrimary)"/>
  <path d="M49.2606 0.770508C22.0899 0.770508 0.000244141 19.4727 0.000244141 42.4538C0.000244141 53.6501 5.13488 64.0977 14.4771 71.9779L11.6245 83.2277C11.2679 84.654 11.571 86.1516 12.4803 87.3105C13.3717 88.4694 14.7801 89.1468 16.2243 89.1468C16.7235 89.1468 17.2048 89.0755 17.6862 88.9151L36.8341 82.782C40.9169 83.6735 45.1066 84.137 49.2606 84.137C76.4314 84.137 98.521 65.4348 98.521 42.4538C98.521 19.4727 76.4136 0.770508 49.2606 0.770508Z" fill="var(--pageBackground)"/>
  <path d="M49.2607 2.55322C23.0349 2.55322 1.7832 20.4175 1.7832 42.4536C1.7832 53.8104 7.43487 64.044 16.4918 71.3181L13.3718 83.6555C12.8013 85.9197 14.9407 87.9165 17.1515 87.2034L36.7629 80.9277C40.7565 81.837 44.9462 82.354 49.2786 82.354C75.5044 82.354 96.7561 64.4897 96.7561 42.4536C96.7561 20.4175 75.5044 2.55322 49.2786 2.55322H49.2607Z" fill="var(--buttonPrimary)"/>
  <path d="M31.6637 46.8391C34.1352 46.8391 36.1387 44.8356 36.1387 42.3641C36.1387 39.8927 34.1352 37.8892 31.6637 37.8892C29.1922 37.8892 27.1887 39.8927 27.1887 42.3641C27.1887 44.8356 29.1922 46.8391 31.6637 46.8391Z" fill="var(--pageBackground)"/>
  <path d="M49.2609 46.8391C51.7323 46.8391 53.7358 44.8356 53.7358 42.3641C53.7358 39.8927 51.7323 37.8892 49.2609 37.8892C46.7894 37.8892 44.7859 39.8927 44.7859 42.3641C44.7859 44.8356 46.7894 46.8391 49.2609 46.8391Z" fill="var(--pageBackground)"/>
  <path d="M66.8397 46.8391C69.3112 46.8391 71.3147 44.8356 71.3147 42.3641C71.3147 39.8927 69.3112 37.8892 66.8397 37.8892C64.3683 37.8892 62.3647 39.8927 62.3647 42.3641C62.3647 44.8356 64.3683 46.8391 66.8397 46.8391Z" fill="var(--pageBackground)"/>
  <path d="M41.4874 96.5457C43.2303 96.5457 44.6431 95.1329 44.6431 93.39C44.6431 91.6472 43.2303 90.2344 41.4874 90.2344C39.7446 90.2344 38.3318 91.6472 38.3318 93.39C38.3318 95.1329 39.7446 96.5457 41.4874 96.5457Z" fill="var(--buttonPrimary)" stroke="var(--pageBackground)" stroke-miterlimit="10"/>
  <path d="M134 34.8056C134 42.668 127.6 49.0685 119.755 49.0685C111.91 49.0685 105.492 42.668 105.492 34.8056C105.492 26.9432 111.893 20.5605 119.755 20.5605C127.617 20.5605 134 26.9432 134 34.8056Z" fill="var(--buttonPrimary)"/>
  <path d="M119.755 45.3777C119.078 45.3777 118.489 45.128 118.008 44.6467C117.526 44.1653 117.277 43.577 117.277 42.8817C117.277 42.1863 117.526 41.6336 118.008 41.1523C118.489 40.6709 119.078 40.4213 119.755 40.4213C120.433 40.4213 120.985 40.6709 121.484 41.1523C121.984 41.6336 122.233 42.2042 122.233 42.8817C122.233 43.3452 122.108 43.7553 121.877 44.1297C121.645 44.5041 121.342 44.8071 120.967 45.0211C120.593 45.235 120.183 45.3598 119.737 45.3598L119.755 45.3777ZM122.144 26.2297L121.752 38.4423C121.752 38.8167 121.431 39.102 121.057 39.102H118.454C118.079 39.102 117.776 38.7989 117.758 38.4423L117.366 26.2297C117.366 25.8375 117.669 25.5166 118.061 25.5166H121.449C121.841 25.5166 122.144 25.8375 122.144 26.2297Z" fill="var(--pageBackground)"/>
</svg>