<svg xmlns="http://www.w3.org/2000/svg" width="240" height="240" viewBox="0 0 240 240" fill="none">
  <path d="M204.728 194.606H192.163C191.45 194.606 190.891 194.047 190.891 193.334C190.891 192.622 191.45 192.062 192.163 192.062H204.728C205.44 192.062 206 192.622 206 193.334C206 194.047 205.44 194.606 204.728 194.606Z" fill="#0B9FA2"/>
  <path d="M183.057 194.606H35.2718C34.5596 194.606 34 194.047 34 193.334C34 192.622 34.5596 192.062 35.2718 192.062H183.031C183.743 192.062 184.303 192.622 184.303 193.334C184.303 194.047 183.743 194.606 183.031 194.606H183.057Z" fill="#0B9FA2"/>
  <path fill-rule="evenodd" clip-rule="evenodd" d="M174.129 86.1488L64.5494 112.018C59.3604 113.238 56.1554 118.453 57.3764 123.642L71.8751 185.071C73.096 190.26 78.3104 193.465 83.4994 192.244L192.926 166.4C198.115 165.179 201.32 159.965 200.099 154.776L185.626 93.4999C184.354 88.1582 179.318 84.9024 174.129 86.1233V86.1488Z" fill="#0B9FA2"/>
  <path d="M166.702 85.2816L155.917 87.8507L152.915 88.5374L129.743 94.0062L105.756 99.6785L83.8301 104.868L80.1164 105.732L70.0437 108.123L59.8183 103.112C57.4018 101.942 56.4352 99.0426 57.6053 96.6516L75.487 60.1251L81.083 48.7042C82.2276 46.3132 85.1528 45.3212 87.5438 46.4912L166.702 85.2816Z" fill="#0B9FA2"/>
  <path d="M153.755 85.8925L130.964 74.726L103.848 61.4482C103.111 61.0667 102.297 60.9141 101.508 60.9141C99.9313 60.9141 98.4051 61.5754 97.2605 62.8218C94.4116 66.0013 90.3418 67.7819 86.1448 67.7819C85.2037 67.7819 84.288 67.7056 83.3468 67.5275C83.0162 67.4766 82.6855 67.4258 82.3803 67.4258C80.3199 67.4258 78.4376 68.6213 77.5219 70.4781L72.6127 80.5254C71.519 82.7384 72.0531 85.3838 73.8845 87.0371C77.9289 90.6491 79.4042 96.0416 78.5648 100.849C78.2596 102.68 78.8446 104.512 80.1164 105.733L83.8301 104.868L82.7109 104.308C81.6172 103.774 81.0321 102.553 81.2356 101.281C82.2531 95.2276 80.1673 88.9957 75.7159 85.0022C74.7494 84.1628 74.4696 82.8402 75.0292 81.721L79.9384 71.6736C80.3962 70.7325 81.3374 70.1474 82.3803 70.1474C82.5329 70.1474 82.6855 70.1474 82.8381 70.1729C83.9319 70.3764 85.0511 70.4781 86.1448 70.4781C91.1558 70.4781 95.9378 68.3669 99.2954 64.6278C99.8804 63.9919 100.669 63.6103 101.508 63.6103C101.915 63.6103 102.297 63.6866 102.678 63.8647L130.964 77.7275L152.584 88.3344C152.712 88.3853 152.813 88.4616 152.915 88.5379L155.917 87.8511C155.408 87.0371 154.67 86.3504 153.755 85.8925Z" fill="white"/>
  <path d="M129.742 94.0078L105.756 99.6801C104.967 96.8566 105.171 93.7534 106.57 90.9045C109.571 84.7998 116.948 82.2816 123.078 85.2577C126.69 87.0382 129.056 90.3449 129.742 94.0078Z" fill="white"/>
  <path d="M187.253 100.505L59.0409 130.766L62.833 146.832L191.045 116.572L187.253 100.505Z" fill="#252324"/>
  <path d="M146.284 135.095L79.8391 150.778C77.7472 151.272 76.4516 153.368 76.9454 155.46L78.0555 160.163C78.5493 162.255 80.6453 163.551 82.7372 163.057L149.183 147.374C151.274 146.881 152.57 144.785 152.076 142.693L150.966 137.989C150.472 135.897 148.376 134.602 146.284 135.095Z" fill="white"/>
  <path d="M177.537 127.693L158.375 132.215C156.284 132.709 154.988 134.805 155.482 136.897L156.592 141.601C157.086 143.693 159.182 144.988 161.274 144.494L180.435 139.972C182.527 139.478 183.822 137.382 183.329 135.29L182.218 130.587C181.725 128.495 179.629 127.199 177.537 127.693Z" fill="white"/>
  <path d="M49.9996 118.607C49.1857 115.962 50.6355 113.164 53.2809 112.324C53.9423 112.121 54.3238 111.409 54.1203 110.722C53.9168 110.035 53.2046 109.679 52.5178 109.883C49.8724 110.696 47.0744 109.247 46.2351 106.601C46.0316 105.94 45.3193 105.558 44.6326 105.762C43.9458 105.965 43.5897 106.678 43.7932 107.364C44.6071 110.01 43.1573 112.808 40.5119 113.647C39.8505 113.851 39.469 114.563 39.6725 115.25C39.876 115.936 40.5882 116.292 41.275 116.089C43.9203 115.275 46.7183 116.725 47.5577 119.37C47.7612 120.032 48.4734 120.413 49.1602 120.21C49.847 120.006 50.2031 119.294 49.9996 118.607Z" fill="#0B9FA2"/>
  <path d="M175.884 80.5453C184.65 80.5453 191.756 73.439 191.756 64.673C191.756 55.907 184.65 48.8008 175.884 48.8008C167.118 48.8008 160.012 55.907 160.012 64.673C160.012 73.439 167.118 80.5453 175.884 80.5453Z" fill="#0B9FA2"/>
  <path d="M175.884 75.7366C175.172 75.7366 174.561 75.4822 174.052 74.9735C173.544 74.4648 173.289 73.8543 173.289 73.1166C173.289 72.379 173.544 71.794 174.052 71.2852C174.561 70.7765 175.172 70.5221 175.884 70.5221C176.596 70.5221 177.181 70.7765 177.715 71.2852C178.249 71.794 178.504 72.4044 178.504 73.1166C178.504 73.5999 178.377 74.0324 178.148 74.4393C177.893 74.8463 177.588 75.1515 177.206 75.3805C176.825 75.6094 176.393 75.7366 175.909 75.7366H175.884ZM178.377 55.6673L177.97 68.4618C177.97 68.8433 177.639 69.1486 177.257 69.1486H174.536C174.154 69.1486 173.823 68.8433 173.823 68.4618L173.416 55.6673C173.416 55.2604 173.722 54.9297 174.129 54.9297H177.69C178.097 54.9297 178.427 55.2604 178.402 55.6673H178.377Z" fill="white"/>
</svg>