<svg xmlns="http://www.w3.org/2000/svg" width="24" height="16" viewBox="0 0 24 16" fill="none">
  <rect x="0.125" y="0.125" width="23.0833" height="15.75" rx="1.375" fill="white" stroke="#D9D9D9"
    stroke-width="0.25" />
  <path fill-rule="evenodd" clip-rule="evenodd"
    d="M4.19853 10.5246H4.31731L4.20608 11.1047C4.18913 11.19 4.1929 11.2563 4.21549 11.2989C4.23815 11.3415 4.27955 11.3628 4.34176 11.3628C4.40204 11.3628 4.45292 11.3415 4.49253 11.2989C4.53208 11.2562 4.55851 11.1899 4.57547 11.1047L4.68663 10.5246H4.80727L4.69419 11.1189C4.66968 11.2468 4.62635 11.3439 4.56229 11.4078C4.50008 11.4717 4.41715 11.5049 4.31539 11.5049C4.21364 11.5049 4.14388 11.4742 4.10619 11.4102C4.06849 11.3462 4.06094 11.2492 4.08545 11.1214L4.19853 10.5246ZM18.5022 11.4788L18.6831 10.5246H19.0958L19.0713 10.6572H18.7792L18.734 10.8963H19.0261L18.9996 11.0313H18.7076L18.6491 11.339H18.9413L18.9149 11.4787L18.5022 11.4788ZM18.4909 10.7567C18.4644 10.7189 18.4324 10.6904 18.3985 10.6738C18.3645 10.6549 18.3269 10.6454 18.2835 10.6454C18.2025 10.6454 18.1309 10.6785 18.0668 10.7449C18.0028 10.8112 17.9613 10.8988 17.9406 11.0053C17.9217 11.1071 17.9292 11.1924 17.967 11.261C18.0028 11.3273 18.0593 11.3605 18.1347 11.3605C18.178 11.3605 18.2214 11.351 18.2647 11.3297C18.308 11.3108 18.3514 11.2799 18.3966 11.2397L18.3627 11.4149C18.325 11.4456 18.2854 11.467 18.2439 11.4812C18.2024 11.4954 18.161 11.5025 18.1158 11.5025C18.0593 11.5025 18.0083 11.4906 17.965 11.4669C17.9216 11.4433 17.8859 11.4077 17.8576 11.3605C17.8293 11.3154 17.8124 11.261 17.8048 11.1995C17.7973 11.1379 17.7992 11.0717 17.8143 11.0006C17.8275 10.9296 17.8501 10.8655 17.8803 10.804C17.9104 10.7424 17.95 10.688 17.9952 10.6431C18.0404 10.5957 18.0894 10.5603 18.1422 10.5365C18.195 10.5129 18.2477 10.5011 18.3024 10.5011C18.3457 10.5011 18.3853 10.5082 18.423 10.5247C18.4588 10.5414 18.4927 10.5649 18.5229 10.5981L18.4909 10.7567ZM17.3187 11.1024H17.524L17.4901 10.8845C17.4882 10.8704 17.4863 10.8537 17.4863 10.8371C17.4844 10.8183 17.4844 10.7993 17.4844 10.778C17.4769 10.7993 17.4694 10.8182 17.4599 10.8371C17.4523 10.856 17.4449 10.8727 17.4373 10.8869L17.3187 11.1024ZM17.5806 11.4788L17.5429 11.2326H17.2489L17.1169 11.4788H16.9907L17.5372 10.4868L17.7068 11.4788H17.5806ZM16.5856 11.4788L16.7665 10.5246H17.1792L17.1547 10.6572H16.8626L16.8174 10.894H17.1094L17.083 11.029H16.7909L16.7061 11.4764H16.5855L16.5856 11.4788ZM16.2294 10.9295H16.252C16.316 10.9295 16.3594 10.92 16.3839 10.9011C16.4084 10.8821 16.4254 10.849 16.4348 10.7992C16.4441 10.7471 16.4404 10.7092 16.4216 10.6879C16.4028 10.6666 16.3631 10.6547 16.3028 10.6547H16.2802L16.2294 10.9295ZM16.1992 11.0503L16.1181 11.4764H16.0051L16.186 10.5223H16.3538C16.4028 10.5223 16.4404 10.527 16.4649 10.5342C16.4912 10.5414 16.512 10.5555 16.5271 10.5744C16.546 10.5981 16.5572 10.6265 16.5629 10.6644C16.5686 10.7 16.5666 10.7402 16.5591 10.7851C16.544 10.8609 16.5195 10.9225 16.4818 10.9651C16.4441 11.0077 16.397 11.0337 16.3405 11.0432L16.512 11.4763H16.3762L16.2123 11.0502L16.1992 11.0503ZM15.4548 11.4788L15.6358 10.5246H16.0504L16.0259 10.6572H15.7338L15.6886 10.8963H15.9807L15.9544 11.0313H15.6622L15.6039 11.339H15.8959L15.8695 11.4787L15.4548 11.4788ZM15.3248 10.6549L15.1684 11.4764H15.0479L15.2043 10.6549H15.0083L15.0328 10.5223H15.5454L15.5209 10.6549H15.3248ZM14.098 11.4788L14.2865 10.4868L14.6446 11.0693C14.654 11.0858 14.6634 11.1025 14.6728 11.1214C14.6822 11.1403 14.6917 11.1616 14.7029 11.1852L14.8293 10.5246H14.9404L14.7519 11.5143L14.3863 10.92C14.3769 10.9035 14.3675 10.8869 14.3581 10.8703C14.3487 10.8514 14.3412 10.8347 14.3355 10.8134L14.2093 11.4763H14.0981L14.098 11.4788ZM13.804 11.4788L13.9849 10.5246H14.1055L13.9246 11.4788H13.804ZM12.9164 11.2871L13.0238 11.2302C13.0256 11.2728 13.035 11.306 13.0558 11.3273C13.0766 11.3486 13.1048 11.3605 13.1425 11.3605C13.1783 11.3605 13.2085 11.3486 13.2348 11.3226C13.2612 11.2965 13.2782 11.2634 13.2857 11.2208C13.297 11.164 13.2707 11.1142 13.2066 11.0717C13.1972 11.0645 13.1916 11.0598 13.1858 11.0574C13.1142 11.0053 13.069 10.9604 13.0501 10.9178C13.0313 10.8752 13.0275 10.8254 13.0389 10.7663C13.0539 10.6882 13.086 10.6266 13.1368 10.5769C13.1877 10.5295 13.2443 10.5035 13.3122 10.5035C13.3668 10.5035 13.4101 10.5177 13.4421 10.5437C13.4742 10.5698 13.4911 10.61 13.4968 10.6598L13.3913 10.7214C13.3818 10.6906 13.3705 10.6693 13.3555 10.655C13.3404 10.6409 13.3216 10.6337 13.2989 10.6337C13.2668 10.6337 13.2386 10.6456 13.216 10.6669C13.1934 10.6882 13.1783 10.7166 13.1708 10.7545C13.1595 10.8113 13.1916 10.8657 13.265 10.9155C13.2707 10.9202 13.2744 10.9226 13.2782 10.9249C13.3423 10.9675 13.3856 11.0102 13.4044 11.0528C13.4233 11.0953 13.4271 11.1451 13.4158 11.209C13.3988 11.299 13.363 11.37 13.3083 11.4245C13.2537 11.4765 13.1896 11.505 13.1142 11.505C13.0521 11.505 13.003 11.486 12.9691 11.4481C12.9314 11.4102 12.9145 11.3556 12.9164 11.2871ZM12.7901 10.6549L12.6337 11.4764H12.5132L12.6696 10.6549H12.4736L12.498 10.5223H13.0106L12.9861 10.6549H12.7901ZM11.5633 11.4788L11.7517 10.4868L12.1098 11.0693C12.1193 11.0858 12.1287 11.1025 12.1381 11.1214C12.1475 11.1403 12.1569 11.1616 12.1683 11.1852L12.2945 10.5246H12.4057L12.2173 11.5143L11.8517 10.92C11.8422 10.9035 11.8329 10.8869 11.8234 10.8703C11.814 10.8514 11.8064 10.8347 11.8008 10.8134L11.6745 11.4763H11.5634L11.5633 11.4788ZM11.013 11.4788L11.1939 10.5246H11.6066L11.5821 10.6572H11.2901L11.2448 10.8963H11.5369L11.5105 11.0313H11.2184L11.16 11.339H11.4522L11.4257 11.4787L11.013 11.4788ZM10.8133 11.0077C10.8133 11.0006 10.8151 10.9792 10.8189 10.9461C10.8208 10.9177 10.8227 10.8964 10.8246 10.8774C10.8171 10.8988 10.8095 10.92 10.8001 10.9437C10.7907 10.9651 10.7794 10.9887 10.7662 11.01L10.476 11.519L10.3817 11.0006C10.378 10.9793 10.3742 10.958 10.3723 10.939C10.3704 10.9201 10.3685 10.8988 10.3685 10.8798C10.3647 10.8988 10.3591 10.92 10.3535 10.9437C10.3478 10.9651 10.3403 10.9887 10.3308 11.0124L10.1612 11.4812H10.0501L10.4137 10.4868L10.5174 11.0882C10.5193 11.0976 10.5212 11.1142 10.5231 11.1355C10.525 11.1569 10.5287 11.1853 10.5325 11.2184C10.5457 11.19 10.5627 11.1569 10.5853 11.1142C10.591 11.1025 10.5966 11.0953 10.5985 11.0882L10.9264 10.4868L10.9151 11.4812H10.8039L10.8133 11.0077ZM9.66563 11.4788L9.74857 11.0432L9.59779 10.527H9.72399L9.8182 10.8515C9.82012 10.8609 9.82197 10.8704 9.82575 10.8845C9.82952 10.8988 9.83144 10.913 9.83516 10.9271C9.84271 10.913 9.85026 10.8987 9.85781 10.8845C9.86536 10.8704 9.87291 10.8585 9.8804 10.8466L10.1009 10.527H10.2215L9.86914 11.0408L9.7862 11.4763H9.66556L9.66563 11.4788ZM9.10591 11.1024H9.31128L9.27736 10.8845C9.27544 10.8704 9.27359 10.8537 9.27359 10.8371C9.27167 10.8183 9.27167 10.7993 9.27167 10.778C9.26411 10.7993 9.25656 10.8182 9.24716 10.8371C9.2396 10.856 9.23212 10.8727 9.2245 10.8869L9.10591 11.1024ZM9.36593 11.4788L9.32824 11.2326H9.03424L8.90234 11.4788H8.77608L9.32261 10.4868L9.4922 11.4788H9.36593ZM8.61026 10.9225H8.6404C8.70639 10.9225 8.75349 10.913 8.77985 10.894C8.80622 10.8751 8.82318 10.842 8.83265 10.7945C8.84199 10.7449 8.83636 10.707 8.81755 10.6881C8.79681 10.6668 8.75534 10.6573 8.6932 10.6573H8.66306L8.61026 10.9225ZM8.5782 11.0503L8.49718 11.4788H8.3841L8.56502 10.5246H8.74779C8.80244 10.5246 8.84014 10.5294 8.86465 10.5365C8.88916 10.5435 8.90804 10.5554 8.92308 10.5743C8.94189 10.5956 8.95508 10.6264 8.96077 10.6643C8.9664 10.7022 8.96455 10.7424 8.957 10.7874C8.94759 10.8324 8.9344 10.875 8.91367 10.9129C8.89293 10.9508 8.86842 10.9815 8.84206 11.0029C8.81947 11.0194 8.79496 11.0336 8.76859 11.0407C8.74222 11.0478 8.70075 11.0526 8.64796 11.0526H8.57826L8.5782 11.0503ZM7.45314 11.3367H7.5549C7.60955 11.3367 7.65287 11.332 7.68308 11.3226C7.71322 11.3132 7.73959 11.2965 7.7641 11.2752C7.79802 11.2445 7.8263 11.2066 7.8489 11.1592C7.87155 11.1142 7.88851 11.0598 7.89977 10.9983C7.91104 10.9367 7.91481 10.8846 7.90918 10.8397C7.90355 10.7946 7.89037 10.7544 7.86771 10.7236C7.85075 10.7 7.83002 10.6858 7.80179 10.6763C7.77351 10.6668 7.73018 10.6621 7.66798 10.6621H7.58133L7.45314 11.3367ZM7.30614 11.4788L7.48712 10.5246H7.64916C7.75469 10.5246 7.82822 10.5317 7.86771 10.5459C7.90732 10.5602 7.94118 10.5815 7.96761 10.6146C8.00153 10.6572 8.02418 10.7117 8.03359 10.7756C8.043 10.8419 8.03922 10.9176 8.02418 11.0005C8.00716 11.0857 7.98271 11.1591 7.94879 11.2253C7.91488 11.2916 7.87155 11.3437 7.82067 11.3864C7.78298 11.4196 7.74151 11.4409 7.69626 11.455C7.65294 11.4692 7.58696 11.4763 7.50024 11.4763H7.30614V11.4788ZM6.75398 11.4788L6.9349 10.5246H7.34761L7.3231 10.6572H7.03096L6.98571 10.8963H7.27785L7.25149 11.0313H6.95934L6.90091 11.339H7.19306L7.16669 11.4787L6.75398 11.4788ZM6.46183 11.4788L6.64275 10.5246H6.76332L6.5824 11.4788H6.46183ZM5.9153 11.4788L6.09622 10.5246H6.50894L6.48443 10.6572H6.19235L6.1471 10.894H6.43918L6.41281 11.029H6.12067L6.03587 11.4764H5.91524L5.9153 11.4788ZM5.62316 11.4788L5.80408 10.5246H5.92465L5.74373 11.4788H5.62316ZM4.79025 11.4788L4.97865 10.4868L5.33671 11.0693C5.34612 11.0858 5.35553 11.1025 5.365 11.1214C5.37441 11.1403 5.38381 11.1616 5.39514 11.1852L5.52141 10.5246H5.63257L5.44416 11.5143L5.07855 10.92C5.06914 10.9035 5.05973 10.8869 5.05026 10.8703C5.04086 10.8514 5.0333 10.8347 5.02767 10.8134L4.90141 11.4763H4.79025V11.4788Z"
    fill="black" />
  <path fill-rule="evenodd" clip-rule="evenodd"
    d="M16.3095 9.69321H15.4821L16.6319 4.47852H17.4593L16.3095 9.69321ZM9.4335 9.36653C9.38824 9.57247 9.23744 9.71684 9.06782 9.71684H4.80237C4.68549 9.71684 4.59882 9.66709 4.54224 9.56773C4.48572 9.46822 4.47253 9.34515 4.50646 9.19845L5.54691 4.49274H6.37441L5.44514 8.69662H8.75501L9.68422 4.49274H10.5117L9.4335 9.36653ZM15.8798 4.64185C15.8233 4.54242 15.7346 4.49274 15.614 4.49274H11.0677L10.8434 5.5153H14.9789L14.7376 6.60658H11.4297V6.60417H10.6022L9.91612 9.71692H10.7436L11.2035 7.62913H14.9223C15.0392 7.62913 15.1485 7.57938 15.2503 7.48002C15.3521 7.38059 15.42 7.25752 15.452 7.11074L15.9119 5.02303C15.9477 4.86685 15.9364 4.74129 15.8798 4.64185Z"
    fill="black" />
  <path fill-rule="evenodd" clip-rule="evenodd"
    d="M18.8872 4.48789L19.9332 7.10114L17.7338 9.7144L17.9954 8.52899L19.1982 7.10114L18.626 5.67153L18.8872 4.48789Z"
    fill="black" />
  <path fill-rule="evenodd" clip-rule="evenodd" d="M18.1517 4.48789L19.1982 7.10114L16.9963 9.7144L18.1517 4.48789Z"
    fill="#5B5A5A" />
</svg>