<svg width="24" height="16" viewBox="0 0 24 16" fill="none" xmlns="http://www.w3.org/2000/svg">
  <rect x="0.125" y="0.125" width="23.0833" height="15.75" rx="1.375" fill="white" stroke="#D9D9D9"
    stroke-width="0.25" />
  <path
    d="M11.2218 8.34509C12.6304 8.32746 13.6932 7.73428 14.1412 6.35393C14.5913 5.01325 14.4767 3.774 13.2243 3.2602C12.4137 2.92724 12.147 3.00883 8.97332 3.00883C8.76702 3.00883 8.58782 3.1698 8.55653 3.38148L7.33545 11.5821C7.31462 11.7431 7.42922 11.8886 7.58757 11.8886H9.14209C9.18377 11.8886 9.19834 11.8733 9.2046 11.8336C9.29002 11.2756 9.57971 9.30209 9.65262 8.87872C9.77352 8.19074 10.3174 8.36057 11.2218 8.34509Z"
    fill="#002D8A" />
  <path
    d="M14.7726 5.70564C14.7351 5.67697 14.7205 5.66592 14.7101 5.73427C14.6684 5.98569 14.6038 6.23043 14.5267 6.47521C13.6952 8.98457 11.3905 8.76629 10.2653 8.76629C10.1382 8.76629 10.0548 8.83907 10.0381 8.97355C9.5672 12.0695 9.47342 12.7155 9.47342 12.7155C9.45257 12.8721 9.54635 13 9.6943 13H11.0175C11.1967 13 11.3447 12.8611 11.3801 12.6715C11.3947 12.5524 11.3572 12.806 11.6802 10.6582C11.776 10.1731 11.9781 10.2239 12.2907 10.2239C13.7703 10.2239 14.9247 9.58879 15.2685 7.74756C15.404 6.98017 15.3644 6.1731 14.7726 5.70564Z"
    fill="#019BE1" />
</svg>