<svg xmlns="http://www.w3.org/2000/svg" width="24" height="16" viewBox="0 0 24 16" fill="none">
  <rect x="0.125" y="0.125" width="23.0833" height="15.75" rx="1.375" fill="white" stroke="#D9D9D9"
    stroke-width="0.25" />
  <path fill-rule="evenodd" clip-rule="evenodd"
    d="M7.08351 10.8402H5.66996L4.60997 6.79632C4.55966 6.6103 4.45283 6.44585 4.29569 6.36834C3.90354 6.17356 3.47141 6.01854 3 5.94036V5.78467H5.27711C5.59139 5.78467 5.8271 6.01854 5.86638 6.29016L6.41636 9.20717L7.82922 5.78467H9.20348L7.08351 10.8402ZM9.98928 10.8402H8.6543L9.75357 5.78467H11.0885L9.98928 10.8402ZM12.8156 7.18511C12.8549 6.91282 13.0906 6.75713 13.3656 6.75713C13.7977 6.71804 14.2685 6.79622 14.6613 6.99033L14.897 5.90184C14.5042 5.74615 14.072 5.66797 13.6799 5.66797C12.3842 5.66797 11.4414 6.36824 11.4414 7.34013C11.4414 8.07949 12.1092 8.46771 12.5806 8.70158C13.0906 8.93478 13.287 9.09047 13.2478 9.32367C13.2478 9.67347 12.8549 9.82916 12.4628 9.82916C11.9913 9.82916 11.5199 9.71256 11.0885 9.51778L10.8528 10.6069C11.3242 10.801 11.8342 10.8792 12.3056 10.8792C13.7584 10.9176 14.6613 10.218 14.6613 9.16798C14.6613 7.84562 12.8156 7.76811 12.8156 7.18511V7.18511ZM19.3334 10.8402L18.2734 5.78467H17.1349C16.8992 5.78467 16.6635 5.94036 16.5849 6.17356L14.6221 10.8402H15.9963L16.2706 10.1015H17.9592L18.1163 10.8402H19.3334ZM17.3311 7.146L17.7233 9.05135H16.624L17.3311 7.146Z"
    fill="#172B85" />
</svg>