<svg width="24" height="16" viewBox="0 0 24 16" fill="none" xmlns="http://www.w3.org/2000/svg">
  <rect x="0.125" y="0.125" width="23.0833" height="15.75" rx="1.375" fill="white" stroke="#D9D9D9"
    stroke-width="0.25" />
  <path
    d="M14.7852 3.33301C17.2975 3.33308 19.334 5.39301 19.334 7.93457C19.334 10.4761 17.2975 12.5361 14.7852 12.5361C13.6585 12.5361 12.6286 12.1208 11.834 11.4346C11.0395 12.1206 10.0102 12.536 8.88379 12.5361C6.37137 12.5361 4.33402 10.4762 4.33398 7.93457C4.33398 5.39296 6.37135 3.33301 8.88379 3.33301C10.01 3.3331 11.0396 3.74778 11.834 4.43359C12.6285 3.74757 13.6587 3.33301 14.7852 3.33301Z"
    fill="#ED0006" />
  <path
    d="M14.7852 3.33301C17.2975 3.33308 19.334 5.39301 19.334 7.93457C19.334 10.4761 17.2975 12.5361 14.7852 12.5361C13.6585 12.5361 12.6286 12.1208 11.834 11.4346C12.8114 10.5905 13.4326 9.33655 13.4326 7.93457C13.4326 6.53237 12.8117 5.27768 11.834 4.43359C12.6285 3.74757 13.6587 3.33301 14.7852 3.33301Z"
    fill="#F9A000" />
  <path
    d="M11.834 4.43359C12.8117 5.27768 13.4326 6.53237 13.4326 7.93457C13.4326 9.33655 12.8114 10.5905 11.834 11.4346C10.8567 10.5905 10.2354 9.33642 10.2354 7.93457C10.2354 6.53249 10.8564 5.27768 11.834 4.43359Z"
    fill="#FF5E00" />
</svg>