<svg width="24" height="16" viewBox="0 0 24 16" fill="none" xmlns="http://www.w3.org/2000/svg">
  <rect x="0.125" y="0.125" width="23.0833" height="15.75" rx="1.375" fill="white" stroke="#D9D9D9"
    stroke-width="0.25" />
  <path fill-rule="evenodd" clip-rule="evenodd"
    d="M5.56476 5.95661C5.87812 5.98304 6.19148 5.79801 6.38733 5.56341C6.57991 5.3222 6.70722 4.99839 6.67458 4.66797C6.39712 4.68119 6.05438 4.853 5.85853 5.09421C5.679 5.30238 5.52559 5.6394 5.56476 5.95661ZM9.29248 10.2123V5.06104H11.202C12.1878 5.06104 12.8765 5.74831 12.8765 6.75278C12.8765 7.75726 12.1747 8.45114 11.1759 8.45114H10.0824V10.2123H9.29248ZM6.67132 6.0193C6.39525 6.00321 6.14336 6.10334 5.93989 6.18421C5.80896 6.23626 5.69808 6.28033 5.61373 6.28033C5.51906 6.28033 5.40361 6.2339 5.27398 6.18177C5.10412 6.11346 4.90993 6.03537 4.70629 6.03912C4.23951 6.04573 3.80537 6.31337 3.56709 6.73961C3.07746 7.59209 3.43979 8.8543 3.91309 9.54818C4.14485 9.89182 4.4223 10.2685 4.78789 10.2553C4.94873 10.2491 5.06442 10.1994 5.18416 10.148C5.32201 10.0888 5.46521 10.0273 5.6888 10.0273C5.90465 10.0273 6.04159 10.0872 6.17304 10.1447C6.29803 10.1994 6.41806 10.2519 6.59624 10.2487C6.97489 10.2421 7.21317 9.90503 7.44493 9.5614C7.69503 9.19258 7.80494 8.83264 7.82162 8.77801L7.82357 8.77169C7.82317 8.77129 7.82009 8.76986 7.81465 8.76734L7.81463 8.76733C7.73102 8.72859 7.092 8.43245 7.08587 7.63835C7.07972 6.97182 7.59273 6.63412 7.67349 6.58096C7.6784 6.57772 7.68171 6.57554 7.68321 6.5744C7.3568 6.08538 6.84758 6.03251 6.67132 6.0193ZM14.3194 10.252C14.8156 10.252 15.2758 9.99762 15.4847 9.59451H15.5011V10.2124H16.2322V7.64833C16.2322 6.90489 15.6447 6.42578 14.7405 6.42578C13.9016 6.42578 13.2814 6.9115 13.2586 7.57895H13.9702C14.0289 7.26174 14.3194 7.05358 14.7177 7.05358C15.2008 7.05358 15.4717 7.28157 15.4717 7.7012V7.98536L14.4859 8.04484C13.5687 8.10101 13.0725 8.48099 13.0725 9.14183C13.0725 9.80928 13.585 10.252 14.3194 10.252ZM14.5315 9.64074C14.1104 9.64074 13.8428 9.43588 13.8428 9.12198C13.8428 8.79817 14.1006 8.60983 14.5935 8.5801L15.4716 8.52393V8.81469C15.4716 9.29711 15.0668 9.64074 14.5315 9.64074ZM18.6575 10.4142C18.3409 11.3162 17.9786 11.6136 17.2082 11.6136C17.1495 11.6136 16.9536 11.607 16.9079 11.5938V10.9759C16.9569 10.9825 17.0777 10.9891 17.1397 10.9891C17.4889 10.9891 17.6848 10.8404 17.8056 10.4538L17.8774 10.2259L16.5391 6.47559H17.3649L18.2952 9.51875H18.3115L19.2418 6.47559H20.0448L18.6575 10.4142ZM10.0823 5.73535H10.993C11.6785 5.73535 12.0702 6.10542 12.0702 6.75635C12.0702 7.40728 11.6785 7.78065 10.9897 7.78065H10.0823V5.73535Z"
    fill="black" />
</svg>