<svg width="16" height="16" viewBox="0 0 16 16" fill="none" xmlns="http://www.w3.org/2000/svg"> <path d="M11.6379 13.8117L11.5828 13.7862C10.8357 13.3416 10.1387 12.7979 9.39629 12.3202C9.05445 12.0999 8.7218 11.8986 8.32018 11.8143C8.2701 11.8036 8.22105 11.7959 8.15002 11.7918C8.01768 11.7847 7.89607 11.7893 7.76679 11.7934L7.75197 11.7949C7.39991 11.8255 7.08821 12.0238 6.79338 12.2057C6.1613 12.5961 5.56397 13.0391 4.95949 13.4443C4.4807 13.7652 3.86447 14.1873 3.24108 13.9098C2.45469 13.5598 2.53491 12.4362 2.53951 11.7172C2.5533 9.53485 2.54922 7.3494 2.54819 5.16601L2.57579 4.69029C2.5855 4.59984 2.59929 4.51043 2.61155 4.42049C2.70149 3.75827 2.96668 3.15225 3.48328 2.71281C4.28091 2.03424 5.13322 2.03475 6.13014 2.01686C7.37436 1.99438 8.63238 1.99438 9.87661 2.01686C10.8684 2.03475 11.7713 2.04037 12.5505 2.73989C13.2858 3.40059 13.433 4.30041 13.4585 5.24674C13.4667 7.37955 13.4468 9.51339 13.4575 11.6462C13.4606 12.2619 13.5449 13.1495 13.1121 13.6456C12.7161 14.0989 12.1377 14.0718 11.6369 13.8122L11.6379 13.8117ZM10.8515 3.20948C10.78 3.19364 10.6042 3.1686 10.523 3.15889C10.268 3.12773 10.033 3.13539 9.77799 3.13079C8.59917 3.10984 7.40809 3.10984 6.22926 3.13079C5.74384 3.13947 5.34323 3.13539 4.89613 3.2897C3.92425 3.62542 3.66723 4.48845 3.66263 5.43529C3.7122 7.17925 3.59007 8.96511 3.68103 10.7019C3.68511 10.7842 3.69738 10.8578 3.70811 10.94C3.72037 11.0918 3.75716 11.243 3.79804 11.3897L3.80417 11.4147C3.83279 11.5139 3.89666 11.5982 3.96513 11.6769C4.50932 12.3043 5.27016 11.8577 5.81946 11.5016C6.15568 11.2834 6.4822 11.0473 6.81689 10.8271C7.12858 10.6217 7.49801 10.3831 7.90015 10.356C8.15973 10.3386 8.40449 10.405 8.64158 10.5006L8.67377 10.5144C9.07897 10.6891 9.38403 10.9697 9.74989 11.2124C10.1924 11.5057 10.7713 11.9492 11.3068 11.9921C11.6349 12.0182 11.9849 11.8301 12.1336 11.5343C12.1586 11.4852 12.1694 11.4582 12.1893 11.4071L12.2015 11.3708C12.2424 11.2241 12.2874 11.0928 12.2997 10.9405L12.3037 10.9109L12.3451 10.4602V5.46288C12.3313 4.86402 12.2567 4.26771 11.8684 3.79199C11.6354 3.50687 11.2736 3.29532 10.9159 3.22123C10.8766 3.2151 10.8582 3.21152 10.8521 3.2105L10.8515 3.20948Z" fill="#171717"/> </svg>