<svg width="16" height="17" viewBox="0 0 16 17" fill="none" xmlns="http://www.w3.org/2000/svg">
<path d="M6.88437 13.1959L6.2762 12.6155C5.37454 11.7625 4.64523 11.042 4.08826 10.4541C3.5313 9.8663 3.09828 9.35235 2.7892 8.91225C2.48012 8.47215 2.27134 8.06991 2.16286 7.70553C2.05429 7.34115 2 6.9585 2 6.55757C2 5.6813 2.28377 4.94336 2.85131 4.34375C3.41884 3.74414 4.1124 3.44434 4.93198 3.44434C5.4479 3.44434 5.92607 3.5657 6.36651 3.80843C6.80703 4.05126 7.18766 4.40715 7.50841 4.87612C7.83819 4.40715 8.21864 4.05126 8.64977 3.80843C9.08089 3.5657 9.55364 3.44434 10.068 3.44434C10.8876 3.44434 11.5812 3.74414 12.1487 4.34375C12.7162 4.94336 13 5.6813 13 6.55757C13 6.95756 12.9458 7.34021 12.8373 7.70553C12.7288 8.07075 12.5194 8.47318 12.2092 8.91281C11.899 9.35254 11.466 9.8663 10.9101 10.4541C10.3542 11.042 9.62546 11.7625 8.7238 12.6155L8.13245 13.1926C8.04033 13.2787 7.94025 13.3422 7.83222 13.383C7.72419 13.4239 7.61513 13.4443 7.50502 13.4443C7.39482 13.4443 7.28462 13.4239 7.17442 13.383C7.06413 13.3422 6.96745 13.2798 6.88437 13.1959Z" stroke="#171717"/>
</svg>
