<svg width="16" height="16" viewBox="0 0 16 16" fill="#171717" xmlns="http://www.w3.org/2000/svg">
  <path fill-rule="evenodd" clip-rule="evenodd"
    d="M11.6379 13.8117L11.5828 13.7862C10.8357 13.3416 10.1387 12.7979 9.39629 12.3202C9.05445 12.0999 8.7218 11.8986 8.32018 11.8143C8.2701 11.8036 8.22105 11.7959 8.15002 11.7918C8.01768 11.7847 7.89607 11.7893 7.76679 11.7934L7.75197 11.7949C7.39991 11.8255 7.08821 12.0238 6.79338 12.2057C6.1613 12.5961 5.56397 13.0391 4.95949 13.4443C4.4807 13.7652 3.86447 14.1873 3.24108 13.9098C2.45469 13.5598 2.53491 12.4362 2.53951 11.7172C2.5533 9.53485 2.54922 7.3494 2.54819 5.16601L2.57579 4.69029C2.5855 4.59984 2.59929 4.51043 2.61155 4.42049C2.70149 3.75827 2.96668 3.15225 3.48328 2.71281C4.28091 2.03424 5.13322 2.03475 6.13014 2.01686C7.37436 1.99438 8.63238 1.99438 9.87661 2.01686C10.8684 2.03475 11.7713 2.04037 12.5505 2.73989C13.2858 3.40059 13.433 4.30041 13.4585 5.24674C13.4667 7.37955 13.4468 9.51339 13.4575 11.6462C13.4606 12.2619 13.5449 13.1495 13.1121 13.6456C12.7161 14.0989 12.1377 14.0718 11.6369 13.8122L11.6379 13.8117Z" />
</svg>
